<svg xmlns="http://www.w3.org/2000/svg" version="1.1" xmlns:xlink="http://www.w3.org/1999/xlink" xmlns:svgjs="http://svgjs.com/svgjs" width="1440" height="2000" preserveAspectRatio="none" viewBox="0 0 1440 2000"><g mask="url(&quot;#SvgjsMask1638&quot;)" fill="none"><rect width="1440" height="2000" x="0" y="0" fill="rgba(3, 26, 136, 1)"></rect><path d="M1440 0L1143.42 0L1440 790.52z" fill="rgba(255, 255, 255, .1)"></path><path d="M1143.42 0L1440 790.52L1440 881.9L590.4000000000001 0z" fill="rgba(255, 255, 255, .075)"></path><path d="M590.4000000000001 0L1440 881.9L1440 1499.02L565.1100000000001 0z" fill="rgba(255, 255, 255, .05)"></path><path d="M565.1100000000001 0L1440 1499.02L1440 1650.21L294.3200000000001 0z" fill="rgba(255, 255, 255, .025)"></path><path d="M0 2000L43.54 2000L0 1661.92z" fill="rgba(0, 0, 0, .1)"></path><path d="M0 1661.92L43.54 2000L165.22 2000L0 1073.27z" fill="rgba(0, 0, 0, .075)"></path><path d="M0 1073.27L165.22 2000L704.89 2000L0 789.8399999999999z" fill="rgba(0, 0, 0, .05)"></path><path d="M0 789.8399999999999L704.89 2000L938.76 2000L0 582.79z" fill="rgba(0, 0, 0, .025)"></path></g><defs><mask id="SvgjsMask1638"><rect width="1440" height="2000" fill="#ffffff"></rect></mask></defs></svg>