<svg xmlns="http://www.w3.org/2000/svg" version="1.1" xmlns:xlink="http://www.w3.org/1999/xlink" xmlns:svgjs="http://svgjs.com/svgjs" width="767" height="1000" preserveAspectRatio="none" viewBox="0 0 767 1000"><g mask="url(&quot;#SvgjsMask1218&quot;)" fill="none"><rect width="767" height="1000" x="0" y="0" fill="rgba(3, 42, 136, 1)"></rect><path d="M0,338.241C62.488,338.939,92.387,259.335,144.518,224.874C195.69,191.047,264.119,185.959,302.615,138.2C345.788,84.638,387.356,13.175,368.477,-52.979C349.42,-119.756,268.079,-143.283,210.998,-182.831C167.841,-212.732,126.492,-244.874,75.217,-256.164C26.172,-266.963,-21.861,-248.34,-71.979,-245.139C-139.376,-240.834,-213.661,-271.085,-270.17,-234.104C-328.607,-195.861,-360.346,-122.24,-366.124,-52.641C-371.781,15.493,-344.224,84.484,-301.02,137.471C-262.421,184.81,-193.274,187.778,-142.459,221.67C-90.358,256.419,-62.622,337.542,0,338.241" fill="#021b58"></path><path d="M767 1406.795C842.462 1397.863 871.481 1302.421 930.9639999999999 1255.133 982.413 1214.232 1052.891 1201.246 1092.003 1148.424 1135.893 1089.148 1174.867 1015.83 1161.915 943.22 1149.022 870.941 1085.652 818.143 1025.564 775.953 974.061 739.7909999999999 909.71 736.898 848.324 723.037 791.227 710.145 736.343 690.915 678.182 697.514 612.004 705.023 534.985 710.928 493.792 763.264 452.636 815.553 483.834 892.068 473.334 957.777 462.604 1024.929 411.783 1088.137 431.481 1153.226 451.583 1219.651 520.671 1255.299 576.038 1297.143 635.808 1342.314 692.6 1415.601 767 1406.795" fill="#0439b8"></path></g><defs><mask id="SvgjsMask1218"><rect width="767" height="1000" fill="#ffffff"></rect></mask></defs></svg>